<svg xmlns="http://www.w3.org/2000/svg" width="120" height="120"><defs><linearGradient x1="50%" y1="0%" x2="50%" y2="100%" id="a"><stop stop-color="#008EE7" offset="0%"/><stop stop-color="#00D6FA" offset="100%"/></linearGradient><linearGradient x1="50%" y1="0%" x2="50%" y2="100%" id="b"><stop stop-color="#FFCC51" offset="0%"/><stop stop-color="#F2DA48" offset="100%"/></linearGradient></defs><g fill="none" fill-rule="evenodd"><rect fill="url(#a)" width="120" height="120" rx="28"/><circle fill="url(#b)" cx="40" cy="50" r="22"/><path d="M44 90h42v-.026c10.029-.52 18-8.816 18-18.974 0-10.493-8.507-19-19-19-1.389 0-2.743.15-4.048.432C78.195 44.051 70.304 38 61 38c-11.432 0-20.73 9.134-20.994 20.503C33.102 60.277 28 66.543 28 74c0 8.837 7.163 16 16 16z" fill="#FFF" opacity=".9"/></g></svg>